<?xml version="1.0" standalone="no"?>
<!DOCTYPE svg PUBLIC "-//W3C//DTD SVG 20010904//EN"
 "http://www.w3.org/TR/2001/REC-SVG-20010904/DTD/svg10.dtd">
<svg version="1.0" xmlns="http://www.w3.org/2000/svg"
 width="512.000000pt" height="512.000000pt" viewBox="0 0 512.000000 512.000000"
 preserveAspectRatio="xMidYMid meet">
<metadata>
Created by potrace 1.14, written by Peter Selinger 2001-2017
</metadata>
<g transform="translate(0.000000,512.000000) scale(0.100000,-0.100000)"
fill="#000000" stroke="none">
<path d="M2320 4949 c-244 -30 -398 -67 -617 -148 -45 -16 -90 -34 -100 -40
-10 -5 -52 -26 -94 -45 -286 -133 -611 -391 -818 -651 -288 -360 -463 -783
-518 -1255 -12 -102 -9 -456 6 -550 7 -47 15 -101 18 -120 40 -275 190 -647
365 -909 261 -390 624 -691 1053 -876 140 -60 388 -138 475 -149 8 -1 31 -5
50 -9 126 -24 214 -31 410 -31 164 -1 330 8 363 19 7 2 28 6 47 9 408 63 830
262 1170 551 66 56 239 235 293 303 61 77 177 239 177 248 0 3 9 18 20 34 38
54 141 270 189 397 47 124 103 331 116 423 4 25 8 59 11 75 17 117 21 194 19
370 -1 110 -8 232 -14 270 -6 39 -14 86 -17 105 -77 470 -314 927 -664 1280
-270 272 -581 466 -945 588 -72 25 -207 60 -255 68 -19 3 -38 8 -42 10 -46 28
-544 51 -698 33z m-315 -1282 c238 -56 453 -224 531 -417 19 -44 24 -51 30
-35 75 216 285 389 537 444 391 85 712 -162 812 -627 18 -84 13 -292 -10 -377
-8 -33 -17 -67 -19 -76 -3 -9 -19 -52 -36 -95 -147 -369 -501 -767 -1055
-1184 -33 -25 -66 -50 -75 -57 -8 -7 -48 -37 -88 -66 l-74 -55 -26 26 c-15 13
-81 65 -147 115 -304 229 -475 376 -661 567 -299 308 -452 562 -520 865 -14
63 -13 270 1 337 45 212 155 411 283 512 126 101 237 137 397 131 55 -2 109
-6 120 -8z"/>
</g>
</svg>
